# Rhino

mtllib column.mtl
usemtl diffuse_0
v 0.52499997615814209 0 -0.5
v 0.52499997615814209 1 -0.5
v 0.52421456575393677 0 -0.50621724128723145
v 0.52421456575393677 1 -0.50621724128723145
v 0.52190768718719482 0 -0.51204383373260498
v 0.52190768718719482 1 -0.51204383373260498
v 0.51822423934936523 0 -0.51711368560791016
v 0.51822423934936523 1 -0.51711368560791016
v 0.51339566707611084 0 -0.52110821008682251
v 0.51339566707611084 1 -0.52110821008682251
v 0.50772541761398315 0 -0.52377641201019287
v 0.50772541761398315 1 -0.52377641201019287
v 0.50156974792480469 0 -0.52495068311691284
v 0.50156974792480469 1 -0.52495068311691284
v 0.49531546235084534 0 -0.52455717325210571
v 0.49531546235084534 1 -0.52455717325210571
v 0.48935550451278687 0 -0.52262067794799805
v 0.48935550451278687 1 -0.52262067794799805
v 0.48406440019607544 0 -0.51926285028457642
v 0.48406440019607544 1 -0.51926285028457642
v 0.47977456450462341 0 -0.51469463109970093
v 0.47977456450462341 1 -0.51469463109970093
v 0.47675558924674988 0 -0.50920313596725464
v 0.47675558924674988 1 -0.50920313596725464
v 0.47519713640213013 0 -0.50313335657119751
v 0.47519713640213013 1 -0.50313335657119751
v 0.47519713640213013 0 -0.49686667323112488
v 0.47519713640213013 1 -0.49686667323112488
v 0.47675558924674988 0 -0.49079689383506775
v 0.47675558924674988 1 -0.49079689383506775
v 0.47977456450462341 0 -0.48530536890029907
v 0.47977456450462341 1 -0.48530536890029907
v 0.48406440019607544 0 -0.48073717951774597
v 0.48406440019607544 1 -0.48073717951774597
v 0.48935550451278687 0 -0.47737932205200195
v 0.48935550451278687 1 -0.47737932205200195
v 0.49531546235084534 0 -0.47544282674789429
v 0.49531546235084534 1 -0.47544282674789429
v 0.50156974792480469 0 -0.47504934668540955
v 0.50156974792480469 1 -0.47504934668540955
v 0.50772541761398315 0 -0.47622358798980713
v 0.50772541761398315 1 -0.47622358798980713
v 0.51339566707611084 0 -0.47889178991317749
v 0.51339566707611084 1 -0.47889178991317749
v 0.51822423934936523 0 -0.48288631439208984
v 0.51822423934936523 1 -0.48288631439208984
v 0.52190768718719482 0 -0.48795616626739502
v 0.52190768718719482 1 -0.48795616626739502
v 0.52421456575393677 0 -0.49378275871276855
v 0.52421456575393677 1 -0.49378275871276855
v 0.52499997615814209 0 -0.5
v 0.52499997615814209 1 -0.5
v 0.52499997615814209 0 -0.5
v 0.52421456575393677 0 -0.50621724128723145
v 0.52190768718719482 0 -0.51204383373260498
v 0.51822423934936523 0 -0.51711368560791016
v 0.51339566707611084 0 -0.52110821008682251
v 0.50772541761398315 0 -0.52377641201019287
v 0.50156974792480469 0 -0.52495068311691284
v 0.49531546235084534 0 -0.52455717325210571
v 0.48935550451278687 0 -0.52262067794799805
v 0.48406440019607544 0 -0.51926285028457642
v 0.47977456450462341 0 -0.51469463109970093
v 0.47675558924674988 0 -0.50920313596725464
v 0.47519713640213013 0 -0.50313335657119751
v 0.47519713640213013 0 -0.49686667323112488
v 0.47675558924674988 0 -0.49079689383506775
v 0.47977456450462341 0 -0.48530536890029907
v 0.48406440019607544 0 -0.48073717951774597
v 0.48935550451278687 0 -0.47737932205200195
v 0.49531546235084534 0 -0.47544282674789429
v 0.50156974792480469 0 -0.47504934668540955
v 0.50772541761398315 0 -0.47622358798980713
v 0.51339566707611084 0 -0.47889178991317749
v 0.51822423934936523 0 -0.48288631439208984
v 0.52190768718719482 0 -0.48795616626739502
v 0.52421456575393677 0 -0.49378275871276855
v 0.52499997615814209 1 -0.5
v 0.52421456575393677 1 -0.50621724128723145
v 0.52190768718719482 1 -0.51204383373260498
v 0.51822423934936523 1 -0.51711368560791016
v 0.51339566707611084 1 -0.52110821008682251
v 0.50772541761398315 1 -0.52377641201019287
v 0.50156974792480469 1 -0.52495068311691284
v 0.49531546235084534 1 -0.52455717325210571
v 0.48935550451278687 1 -0.52262067794799805
v 0.48406440019607544 1 -0.51926285028457642
v 0.47977456450462341 1 -0.51469463109970093
v 0.47675558924674988 1 -0.50920313596725464
v 0.47519713640213013 1 -0.50313335657119751
v 0.47519713640213013 1 -0.49686667323112488
v 0.47675558924674988 1 -0.49079689383506775
v 0.47977456450462341 1 -0.48530536890029907
v 0.48406440019607544 1 -0.48073717951774597
v 0.48935550451278687 1 -0.47737932205200195
v 0.49531546235084534 1 -0.47544282674789429
v 0.50156974792480469 1 -0.47504934668540955
v 0.50772541761398315 1 -0.47622358798980713
v 0.51339566707611084 1 -0.47889178991317749
v 0.51822423934936523 1 -0.48288631439208984
v 0.52190768718719482 1 -0.48795616626739502
v 0.52421456575393677 1 -0.49378275871276855
vt 0 0
vt 0 1
vt 0.032226543873548508 0
vt 0.032226543873548508 1
vt 0.064453087747097015 0
vt 0.064453087747097015 1
vt 0.096679627895355225 0
vt 0.096679627895355225 1
vt 0.12890617549419403 0
vt 0.12890617549419403 1
vt 0.16113272309303284 0
vt 0.16113272309303284 1
vt 0.19335925579071045 0
vt 0.19335925579071045 1
vt 0.22558580338954926 0
vt 0.22558580338954926 1
vt 0.25781235098838806 0
vt 0.25781235098838806 1
vt 0.29003888368606567 0
vt 0.29003888368606567 1
vt 0.32226544618606567 0
vt 0.32226544618606567 1
vt 0.35449197888374329 0
vt 0.35449197888374329 1
vt 0.3867185115814209 0
vt 0.3867185115814209 1
vt 0.4189450740814209 0
vt 0.4189450740814209 1
vt 0.45117160677909851 0
vt 0.45117160677909851 1
vt 0.48339816927909851 0
vt 0.48339816927909851 1
vt 0.51562470197677612 0
vt 0.51562470197677612 1
vt 0.54785126447677612 0
vt 0.54785126447677612 1
vt 0.58007776737213135 0
vt 0.58007776737213135 1
vt 0.61230432987213135 0
vt 0.61230432987213135 1
vt 0.64453089237213135 0
vt 0.64453089237213135 1
vt 0.67675739526748657 0
vt 0.67675739526748657 1
vt 0.70898395776748657 0
vt 0.70898395776748657 1
vt 0.74121052026748657 0
vt 0.74121052026748657 1
vt 0.7734370231628418 0
vt 0.7734370231628418 1
vt 0.8056635856628418 0
vt 0.8056635856628418 1
vt 1 0.024950668215751648
vt 0.99693518877029419 0.018733421340584755
vt 0.98793339729309082 0.012906826101243496
vt 0.97356021404266357 0.0078369909897446632
vt 0.95471876859664917 0.0038424700032919645
vt 0.93259292840957642 0.0011742552742362022
vt 0.9085729718208313 0
vt 0.88416808843612671 0.000393486930988729
vt 0.8609117865562439 0.0023299918975681067
vt 0.84026533365249634 0.0056878370232880116
vt 0.82352602481842041 0.01025603711605072
vt 0.81174564361572266 0.0157475546002388
vt 0.80566442012786865 0.021817337721586227
vt 0.80566442012786865 0.028083998709917068
vt 0.81174564361572266 0.034153781831264496
vt 0.82352602481842041 0.039645299315452576
vt 0.84026533365249634 0.044213499873876572
vt 0.8609117865562439 0.047571346163749695
vt 0.88416808843612671 0.049507848918437958
vt 0.9085729718208313 0.049901336431503296
vt 0.93259292840957642 0.048727080225944519
vt 0.95471876859664917 0.046058867126703262
vt 0.97356021404266357 0.042064346373081207
vt 0.98793339729309082 0.036994509398937225
vt 0.99693518877029419 0.031167915090918541
vt 1 0.024950668215751648
vt 0.99693518877029419 0.031167915090918541
vt 0.98793339729309082 0.036994509398937225
vt 0.97356021404266357 0.042064346373081207
vt 0.95471876859664917 0.046058867126703262
vt 0.93259292840957642 0.048727080225944519
vt 0.9085729718208313 0.049901336431503296
vt 0.88416808843612671 0.049507848918437958
vt 0.8609117865562439 0.047571346163749695
vt 0.84026533365249634 0.044213499873876572
vt 0.82352602481842041 0.039645299315452576
vt 0.81174564361572266 0.034153781831264496
vt 0.80566442012786865 0.028083998709917068
vt 0.80566442012786865 0.021817337721586227
vt 0.81174564361572266 0.0157475546002388
vt 0.82352602481842041 0.01025603711605072
vt 0.84026533365249634 0.0056878370232880116
vt 0.8609117865562439 0.0023299918975681067
vt 0.88416808843612671 0.000393486930988729
vt 0.9085729718208313 0
vt 0.93259292840957642 0.0011742552742362022
vt 0.95471876859664917 0.0038424700032919645
vt 0.97356021404266357 0.0078369909897446632
vt 0.98793339729309082 0.012906826101243496
vt 0.99693518877029419 0.018733421340584755
vn 1 0 0
vn 1 0 0
vn 0.96858316659927368 0 -0.24868988990783691
vn 0.96858316659927368 0 -0.24868988990783691
vn 0.87630665302276611 0 -0.48175367712974548
vn 0.87630665302276611 0 -0.48175367712974548
vn 0.72896862030029297 0 -0.68454712629318237
vn 0.72896862030029297 0 -0.68454712629318237
vn 0.53582680225372314 0 -0.84432792663574219
vn 0.53582680225372314 0 -0.84432792663574219
vn 0.30901700258255005 0 -0.95105654001235962
vn 0.30901700258255005 0 -0.95105654001235962
vn 0.062790520489215851 0 -0.99802672863006592
vn 0.062790520489215851 0 -0.99802672863006592
vn -0.187381312251091 0 -0.98228722810745239
vn -0.187381312251091 0 -0.98228722810745239
vn -0.42577928304672241 0 -0.9048270583152771
vn -0.42577928304672241 0 -0.9048270583152771
vn -0.63742399215698242 0 -0.77051323652267456
vn -0.63742399215698242 0 -0.77051323652267456
vn -0.80901700258255005 0 -0.58778524398803711
vn -0.80901700258255005 0 -0.58778524398803711
vn -0.92977648973464966 0 -0.36812454462051392
vn -0.92977648973464966 0 -0.36812454462051392
vn -0.99211472272872925 0 -0.12533323466777802
vn -0.99211472272872925 0 -0.12533323466777802
vn -0.99211472272872925 0 0.12533323466777802
vn -0.99211472272872925 0 0.12533323466777802
vn -0.92977648973464966 0 0.36812454462051392
vn -0.92977648973464966 0 0.36812454462051392
vn -0.80901700258255005 0 0.58778524398803711
vn -0.80901700258255005 0 0.58778524398803711
vn -0.63742399215698242 0 0.77051323652267456
vn -0.63742399215698242 0 0.77051323652267456
vn -0.42577928304672241 0 0.9048270583152771
vn -0.42577928304672241 0 0.9048270583152771
vn -0.187381312251091 0 0.98228722810745239
vn -0.187381312251091 0 0.98228722810745239
vn 0.062790520489215851 0 0.99802672863006592
vn 0.062790520489215851 0 0.99802672863006592
vn 0.30901700258255005 0 0.95105654001235962
vn 0.30901700258255005 0 0.95105654001235962
vn 0.53582680225372314 0 0.84432792663574219
vn 0.53582680225372314 0 0.84432792663574219
vn 0.72896862030029297 0 0.68454712629318237
vn 0.72896862030029297 0 0.68454712629318237
vn 0.87630665302276611 0 0.48175367712974548
vn 0.87630665302276611 0 0.48175367712974548
vn 0.96858316659927368 0 0.24868988990783691
vn 0.96858316659927368 0 0.24868988990783691
vn 1 0 0
vn 1 0 0
vn 0 -1 0
vn 0 -1 0
vn 0 -1 0
vn 0 -1 0
vn 0 -1 0
vn 0 -1 0
vn 0 -1 0
vn 0 -1 0
vn 0 -1 0
vn 0 -1 0
vn 0 -1 0
vn 0 -1 0
vn 0 -1 0
vn 0 -1 0
vn 0 -1 0
vn 0 -1 0
vn 0 -1 0
vn 0 -1 0
vn 0 -1 0
vn 0 -1 0
vn 0 -1 0
vn 0 -1 0
vn 0 -1 0
vn 0 -1 0
vn 0 -1 0
vn 0 1 0
vn 0 1 0
vn 0 1 0
vn 0 1 0
vn 0 1 0
vn 0 1 0
vn 0 1 0
vn 0 1 0
vn 0 1 0
vn 0 1 0
vn 0 1 0
vn 0 1 0
vn 0 1 0
vn 0 1 0
vn 0 1 0
vn 0 1 0
vn 0 1 0
vn 0 1 0
vn 0 1 0
vn 0 1 0
vn 0 1 0
vn 0 1 0
vn 0 1 0
vn 0 1 0
vn 0 1 0
f 1/1/1 3/3/3 4/4/4 2/2/2
f 3/3/3 5/5/5 6/6/6 4/4/4
f 5/5/5 7/7/7 8/8/8 6/6/6
f 7/7/7 9/9/9 10/10/10 8/8/8
f 9/9/9 11/11/11 12/12/12 10/10/10
f 11/11/11 13/13/13 14/14/14 12/12/12
f 13/13/13 15/15/15 16/16/16 14/14/14
f 15/15/15 17/17/17 18/18/18 16/16/16
f 17/17/17 19/19/19 20/20/20 18/18/18
f 19/19/19 21/21/21 22/22/22 20/20/20
f 21/21/21 23/23/23 24/24/24 22/22/22
f 23/23/23 25/25/25 26/26/26 24/24/24
f 25/25/25 27/27/27 28/28/28 26/26/26
f 27/27/27 29/29/29 30/30/30 28/28/28
f 29/29/29 31/31/31 32/32/32 30/30/30
f 31/31/31 33/33/33 34/34/34 32/32/32
f 33/33/33 35/35/35 36/36/36 34/34/34
f 35/35/35 37/37/37 38/38/38 36/36/36
f 37/37/37 39/39/39 40/40/40 38/38/38
f 39/39/39 41/41/41 42/42/42 40/40/40
f 41/41/41 43/43/43 44/44/44 42/42/42
f 43/43/43 45/45/45 46/46/46 44/44/44
f 45/45/45 47/47/47 48/48/48 46/46/46
f 47/47/47 49/49/49 50/50/50 48/48/48
f 49/49/49 51/51/51 52/52/52 50/50/50
f 66/66/66 65/65/65 67/67/67
f 68/68/68 67/67/67 69/69/69
f 70/70/70 69/69/69 72/72/72
f 67/67/67 65/65/65 58/58/58
f 75/75/75 69/69/69 67/67/67
f 64/64/64 63/63/63 65/65/65
f 60/60/60 65/65/65 63/63/63
f 62/62/62 61/61/61 63/63/63
f 60/60/60 63/63/63 61/61/61
f 58/58/58 65/65/65 60/60/60
f 71/71/71 70/70/70 72/72/72
f 73/73/73 72/72/72 75/75/75
f 74/74/74 73/73/73 75/75/75
f 76/76/76 75/75/75 54/54/54
f 75/75/75 67/67/67 54/54/54
f 76/76/76 53/53/53 77/77/77
f 57/57/57 56/56/56 58/58/58
f 58/58/58 60/60/60 59/59/59
f 58/58/58 56/56/56 54/54/54
f 54/54/54 56/56/56 55/55/55
f 67/67/67 58/58/58 54/54/54
f 54/54/54 53/53/53 76/76/76
f 75/75/75 72/72/72 69/69/69
f 91/91/91 92/92/92 90/90/90
f 93/93/93 94/94/94 92/92/92
f 95/95/95 97/97/97 94/94/94
f 92/92/92 83/83/83 90/90/90
f 100/100/100 92/92/92 94/94/94
f 89/89/89 90/90/90 88/88/88
f 85/85/85 88/88/88 90/90/90
f 87/87/87 88/88/88 86/86/86
f 85/85/85 86/86/86 88/88/88
f 83/83/83 85/85/85 90/90/90
f 96/96/96 97/97/97 95/95/95
f 98/98/98 100/100/100 97/97/97
f 99/99/99 100/100/100 98/98/98
f 101/101/101 79/79/79 100/100/100
f 100/100/100 79/79/79 92/92/92
f 101/101/101 102/102/102 78/78/78
f 82/82/82 83/83/83 81/81/81
f 83/83/83 84/84/84 85/85/85
f 83/83/83 79/79/79 81/81/81
f 79/79/79 80/80/80 81/81/81
f 92/92/92 79/79/79 83/83/83
f 79/79/79 101/101/101 78/78/78
f 100/100/100 94/94/94 97/97/97
