# Rhino

mtllib stairsB.mtl
usemtl diffuse_0
v -0.98597568273544312 0.99482256174087524 -1.3469674587249756
v -0.98279047012329102 0.99482256174087524 -1.9841043949127197
v 0.0090289749205112457 0.99482256174087524 -1.3535482883453369
v 0.012214181013405323 0.99482256174087524 -1.9906851053237915
vt 0 0
vt 0 1
vt 1 0
vt 1 1
vn 0 1 0
vn 0 1 0
vn 0 1 0
vn 0 1 0
f 4/4/4 2/2/2 1/1/1 3/3/3
usemtl diffuse_0
v 0.0087821884080767632 0.99482256174087524 -1.3528302907943726
v 0.012214181013405323 0.99482256174087524 -1.9906851053237915
v 1.0038037300109863 0.99482256174087524 -1.3605656623840332
v 1.0072356462478638 0.99482256174087524 -1.9984204769134521
vt 0 0
vt 0 1
vt 1 0
vt 1 1
vn 0 1 0
vn 0 1 0
vn 0 1 0
vn 0 1 0
f 8/8/8 6/6/6 5/5/5 7/7/7
usemtl diffuse_0
v 0.0081816744059324265 1.1191753149032593 -1.1840628385543823
v -0.98682296276092529 1.1191753149032593 -1.1774821281433105
v 0.0090289749205112457 1.1191753149032593 -1.3535482883453369
v -0.98597568273544312 1.1191753149032593 -1.3469674587249756
vt 0 0
vt 0 1
vt 1 0
vt 1 1
vn 0 1 0
vn 0 1 0
vn 0 1 0
vn 0 1 0
f 12/12/12 10/10/10 9/9/9 11/11/11
usemtl diffuse_0
v 0.0073343748226761818 1.2435282468795776 -1.0145775079727173
v -0.98767030239105225 1.2435282468795776 -1.007996678352356
v 0.0081816744059324265 1.2435282468795776 -1.1840628385543823
v -0.98682296276092529 1.2435282468795776 -1.1774821281433105
vt 0 0
vt 0 1
vt 1 0
vt 1 1
vn 0 1 0
vn 0 1 0
vn 0 1 0
vn 0 1 0
f 16/16/16 14/14/14 13/13/13 15/15/15
usemtl diffuse_0
v 0.0064870747737586498 1.3678810596466064 -0.8450920581817627
v -0.98851758241653442 1.3678810596466064 -0.83851128816604614
v 0.0073343748226761818 1.3678810596466064 -1.0145775079727173
v -0.98767030239105225 1.3678810596466064 -1.007996678352356
vt 0 0
vt 0 1
vt 1 0
vt 1 1
vn 0 1 0
vn 0 1 0
vn 0 1 0
vn 0 1 0
f 20/20/20 18/18/18 17/17/17 19/19/19
usemtl diffuse_0
v 0.0056397751905024052 1.4922338724136353 -0.67560666799545288
v -0.9893648624420166 1.4922338724136353 -0.66902589797973633
v 0.0064870747737586498 1.4922338724136353 -0.8450920581817627
v -0.98851758241653442 1.4922338724136353 -0.83851128816604614
vt 0 0
vt 0 1
vt 1 0
vt 1 1
vn 0 1 0
vn 0 1 0
vn 0 1 0
vn 0 1 0
f 24/24/24 22/22/22 21/21/21 23/23/23
usemtl diffuse_0
v 0.0047924751415848732 1.6165866851806641 -0.50612127780914307
v -0.99021220207214355 1.6165866851806641 -0.49954050779342651
v 0.0056397751905024052 1.6165866851806641 -0.67560666799545288
v -0.9893648624420166 1.6165866851806641 -0.66902589797973633
vt 0 0
vt 0 1
vt 1 0
vt 1 1
vn 0 1 0
vn 0 1 0
vn 0 1 0
vn 0 1 0
f 28/28/28 26/26/26 25/25/25 27/27/27
usemtl diffuse_0
v 0.0039451750926673412 1.7409394979476929 -0.33663588762283325
v -0.99105948209762573 1.7409394979476929 -0.33005508780479431
v 0.0047924751415848732 1.7409394979476929 -0.50612127780914307
v -0.99021220207214355 1.7409394979476929 -0.49954050779342651
vt 0 0
vt 0 1
vt 1 0
vt 1 1
vn 0 1 0
vn 0 1 0
vn 0 1 0
vn 0 1 0
f 32/32/32 30/30/30 29/29/29 31/31/31
usemtl diffuse_0
v 0.0030978752765804529 1.8652923107147217 -0.16715046763420105
v -0.99190676212310791 1.8652923107147217 -0.1605696976184845
v 0.0039451750926673412 1.8652923107147217 -0.33663588762283325
v -0.99105948209762573 1.8652923107147217 -0.33005508780479431
vt 0 0
vt 0 1
vt 1 0
vt 1 1
vn 0 1 0
vn 0 1 0
vn 0 1 0
vn 0 1 0
f 36/36/36 34/34/34 33/33/33 35/35/35
usemtl diffuse_0
v 0.0022505754604935646 1.9896451234817505 0.0023349307011812925
v -0.99275410175323486 1.9896451234817505 0.008915705606341362
v 0.0030978752765804529 1.9896451234817505 -0.16715046763420105
v -0.99190676212310791 1.9896451234817505 -0.1605696976184845
vt 0 0
vt 0 1
vt 1 0
vt 1 1
vn 0 1 0
vn 0 1 0
vn 0 1 0
vn 0 1 0
f 40/40/40 38/38/38 37/37/37 39/39/39
usemtl diffuse_0
v 0.99505096673965454 0 0.0010617017978802323
v 2.9500715754693374E-05 0 0.0087970606982707977
v 0.99559801816940308 0 -0.08404000848531723
v 0.00057654367992654443 0 -0.07630465179681778
v 0.99614506959915161 0 -0.16914170980453491
v 0.0011235866695642471 0 -0.16140635311603546
vt 0 0
vt 0 1
vt 0.5 0
vt 0.5 1
vt 1 0
vt 1 1
vn 0 1 0
vn 0 1 0
vn 0 1 0
vn 0 1 0
vn 0 1 0
vn 0 1 0
f 44/44/44 42/42/42 41/41/41 43/43/43
f 46/46/46 44/44/44 43/43/43 45/45/45
usemtl diffuse_0
v 0.99614506959915161 0.12435282021760941 -0.16914170980453491
v 0.0011235866695642471 0.12435282021760941 -0.16140635311603546
v 0.99669212102890015 0.12435282021760941 -0.25424343347549438
v 0.0016706297174096107 0.12435282021760941 -0.24650806188583374
v 0.99723917245864868 0.12435282021760941 -0.33934512734413147
v 0.0022176727652549744 0.12435282021760941 -0.33160978555679321
vt 0 0
vt 0 1
vt 0.5 0
vt 0.5 1
vt 1 0
vt 1 1
vn 0 1 0
vn 0 1 0
vn 0 1 0
vn 0 1 0
vn 0 1 0
vn 0 1 0
f 50/50/50 48/48/48 47/47/47 49/49/49
f 52/52/52 50/50/50 49/49/49 51/51/51
usemtl diffuse_0
v 0.99723917245864868 0.24870564043521881 -0.33934512734413147
v 0.0022176727652549744 0.24870564043521881 -0.33160978555679321
v 0.99778622388839722 0.24870564043521881 -0.42444685101509094
v 0.0027647155802696943 0.24870564043521881 -0.4167114794254303
v 0.99833327531814575 0.24870564043521881 -0.50954854488372803
v 0.0033117586281150579 0.24870564043521881 -0.50181317329406738
vt 0 0
vt 0 1
vt 0.5 0
vt 0.5 1
vt 1 0
vt 1 1
vn 0 1 0
vn 0 1 0
vn 0 1 0
vn 0 1 0
vn 0 1 0
vn 0 1 0
f 56/56/56 54/54/54 53/53/53 55/55/55
f 58/58/58 56/56/56 55/55/55 57/57/57
usemtl diffuse_0
v 0.99833327531814575 0.37305846810340881 -0.50954854488372803
v 0.0033117586281150579 0.37305846810340881 -0.50181317329406738
v 0.99942731857299805 0.37305846810340881 -0.67975199222564697
v 0.0044058444909751415 0.37305846810340881 -0.67201662063598633
vt 0 0
vt 0 1
vt 1 0
vt 1 1
vn 0 1 0
vn 0 1 0
vn 0 1 0
vn 0 1 0
f 62/62/62 60/60/60 59/59/59 61/61/61
usemtl diffuse_0
v 0.99942731857299805 0.49741128087043762 -0.67975199222564697
v 0.0044058444909751415 0.49741128087043762 -0.67201662063598633
v 1.0005214214324951 0.49741128087043762 -0.84995537996292114
v 0.0054999305866658688 0.49741128087043762 -0.8422200083732605
vt 0 0
vt 0 1
vt 1 0
vt 1 1
vn 0 1 0
vn 0 1 0
vn 0 1 0
vn 0 1 0
f 66/66/66 64/64/64 63/63/63 65/65/65
usemtl diffuse_0
v 1.0005214214324951 0.62176412343978882 -0.84995537996292114
v 0.0054999305866658688 0.62176412343978882 -0.8422200083732605
v 1.0016155242919922 0.62176412343978882 -1.0201587677001953
v 0.006594016682356596 0.62176412343978882 -1.0124233961105347
vt 0 0
vt 0 1
vt 1 0
vt 1 1
vn 0 1 0
vn 0 1 0
vn 0 1 0
vn 0 1 0
f 70/70/70 68/68/68 67/67/67 69/69/69
usemtl diffuse_0
v 1.0016155242919922 0.74611693620681763 -1.0201587677001953
v 0.006594016682356596 0.74611693620681763 -1.0124233961105347
v 1.0021625757217407 0.74611693620681763 -1.1052604913711548
v 0.0071410597302019596 0.74611693620681763 -1.0975251197814941
v 1.0027096271514893 0.74611693620681763 -1.1903622150421143
v 0.0076881027780473232 0.74611693620681763 -1.1826268434524536
vt 0 0
vt 0 1
vt 0.5 0
vt 0.5 1
vt 1 0
vt 1 1
vn 0 1 0
vn 0 1 0
vn 0 1 0
vn 0 1 0
vn 0 1 0
vn 0 1 0
f 74/74/74 72/72/72 71/71/71 73/73/73
f 76/76/76 74/74/74 73/73/73 75/75/75
usemtl diffuse_0
v 1.0027096271514893 0.87046974897384644 -1.1903622150421143
v 0.0076881027780473232 0.87046974897384644 -1.1826268434524536
v 1.0032566785812378 0.87046974897384644 -1.2754639387130737
v 0.0082351453602313995 0.87046974897384644 -1.2677285671234131
v 1.0038037300109863 0.87046974897384644 -1.3605656623840332
v 0.0087821884080767632 0.87046974897384644 -1.3528302907943726
vt 0 0
vt 0 1
vt 0.5 0
vt 0.5 1
vt 1 0
vt 1 1
vn 0 1 0
vn 0 1 0
vn 0 1 0
vn 0 1 0
vn 0 1 0
vn 0 1 0
f 80/80/80 78/78/78 77/77/77 79/79/79
f 82/82/82 80/80/80 79/79/79 81/81/81
