# Rhino

mtllib stairs.mtl
usemtl diffuse_0
v -0.00061736861243844032 0.5 -0.67646074295043945
v 0.00098352308850735426 0.5 -0.99668711423873901
v 0.4994741678237915 0.5 -0.67976826429367065
v 0.50107502937316895 0.5 -0.99999463558197021
vt 0 0
vt 0 1
vt 1 0
vt 1 1
vn 0 1 0
vn 0 1 0
vn 0 1 0
vn 0 1 0
f 4/4/4 2/2/2 1/1/1 3/3/3
usemtl diffuse_0
v 0.49935013055801392 0.5 -0.67940735816955566
v 0.50107502937316895 0.5 -0.99999463558197021
v 0.99945008754730225 0.5 -0.68329519033432007
v 1.0011750459671021 0.5 -1.0038824081420898
vt 0 0
vt 0 1
vt 1 0
vt 1 1
vn 0 1 0
vn 0 1 0
vn 0 1 0
vn 0 1 0
f 8/8/8 6/6/6 5/5/5 7/7/7
usemtl diffuse_0
v 0.49904829263687134 0.5625 -0.59458452463150024
v -0.0010432234266772866 0.5625 -0.59127700328826904
v 0.4994741678237915 0.5625 -0.67976826429367065
v -0.00061736861243844032 0.5625 -0.67646074295043945
vt 0 0
vt 0 1
vt 1 0
vt 1 1
vn 0 1 0
vn 0 1 0
vn 0 1 0
vn 0 1 0
f 12/12/12 10/10/10 9/9/9 11/11/11
usemtl diffuse_0
v 0.49862244725227356 0.625 -0.50940078496932983
v -0.0014690782409161329 0.625 -0.50609326362609863
v 0.49904829263687134 0.625 -0.59458452463150024
v -0.0010432234266772866 0.625 -0.59127700328826904
vt 0 0
vt 0 1
vt 1 0
vt 1 1
vn 0 1 0
vn 0 1 0
vn 0 1 0
vn 0 1 0
f 16/16/16 14/14/14 13/13/13 15/15/15
usemtl diffuse_0
v 0.49819660186767578 0.6875 -0.42421704530715942
v -0.0018949330551549792 0.6875 -0.42090952396392822
v 0.49862244725227356 0.6875 -0.50940078496932983
v -0.0014690782409161329 0.6875 -0.50609326362609863
vt 0 0
vt 0 1
vt 1 0
vt 1 1
vn 0 1 0
vn 0 1 0
vn 0 1 0
vn 0 1 0
f 20/20/20 18/18/18 17/17/17 19/19/19
usemtl diffuse_0
v 0.49777072668075562 0.75 -0.33903330564498901
v -0.0023207878693938255 0.75 -0.3357258141040802
v 0.49819660186767578 0.75 -0.42421704530715942
v -0.0018949330551549792 0.75 -0.42090952396392822
vt 0 0
vt 0 1
vt 1 0
vt 1 1
vn 0 1 0
vn 0 1 0
vn 0 1 0
vn 0 1 0
f 24/24/24 22/22/22 21/21/21 23/23/23
usemtl diffuse_0
v 0.49734488129615784 0.8125 -0.2538495659828186
v -0.00274664256721735 0.8125 -0.25054207444190979
v 0.49777072668075562 0.8125 -0.33903330564498901
v -0.0023207878693938255 0.8125 -0.3357258141040802
vt 0 0
vt 0 1
vt 1 0
vt 1 1
vn 0 1 0
vn 0 1 0
vn 0 1 0
vn 0 1 0
f 28/28/28 26/26/26 25/25/25 27/27/27
usemtl diffuse_0
v 0.49691903591156006 0.875 -0.16866584122180939
v -0.0031724974978715181 0.875 -0.16535833477973938
v 0.49734488129615784 0.875 -0.2538495659828186
v -0.00274664256721735 0.875 -0.25054207444190979
vt 0 0
vt 0 1
vt 1 0
vt 1 1
vn 0 1 0
vn 0 1 0
vn 0 1 0
vn 0 1 0
f 32/32/32 30/30/30 29/29/29 31/31/31
usemtl diffuse_0
v 0.49649319052696228 0.9375 -0.083482109010219574
v -0.0035983521956950426 0.9375 -0.08017459511756897
v 0.49691903591156006 0.9375 -0.16866584122180939
v -0.0031724974978715181 0.9375 -0.16535833477973938
vt 0 0
vt 0 1
vt 1 0
vt 1 1
vn 0 1 0
vn 0 1 0
vn 0 1 0
vn 0 1 0
f 36/36/36 34/34/34 33/33/33 35/35/35
usemtl diffuse_0
v 0.49606731534004211 1 0.0017016294877976179
v -0.0040242071263492107 1 0.0050091417506337166
v 0.49649319052696228 1 -0.083482109010219574
v -0.0035983521956950426 1 -0.08017459511756897
vt 0 0
vt 0 1
vt 1 0
vt 1 1
vn 0 1 0
vn 0 1 0
vn 0 1 0
vn 0 1 0
f 40/40/40 38/38/38 37/37/37 39/39/39
usemtl diffuse_0
v 0.99505096673965454 0 0.0010617017978802323
v 0.49495100975036621 0 0.0049495100975036621
v 0.99532592296600342 0 -0.041710603982210159
v 0.4952259361743927 0 -0.037822794169187546
v 0.99560087919235229 0 -0.084482908248901367
v 0.49550089240074158 0 -0.080595098435878754
vt 0 0
vt 0 1
vt 0.5 0
vt 0.5 1
vt 1 0
vt 1 1
vn 0 1 0
vn 0 1 0
vn 0 1 0
vn 0 1 0
vn 0 1 0
vn 0 1 0
f 44/44/44 42/42/42 41/41/41 43/43/43
f 46/46/46 44/44/44 43/43/43 45/45/45
usemtl diffuse_0
v 0.99560087919235229 0.0625 -0.084482908248901367
v 0.49550089240074158 0.0625 -0.080595098435878754
v 0.99587583541870117 0.0625 -0.12725521624088287
v 0.49577584862709045 0.0625 -0.12336740642786026
v 0.99615079164505005 0.0625 -0.17002752423286438
v 0.49605077505111694 0.0625 -0.16613970696926117
vt 0 0
vt 0 1
vt 0.5 0
vt 0.5 1
vt 1 0
vt 1 1
vn 0 1 0
vn 0 1 0
vn 0 1 0
vn 0 1 0
vn 0 1 0
vn 0 1 0
f 50/50/50 48/48/48 47/47/47 49/49/49
f 52/52/52 50/50/50 49/49/49 51/51/51
usemtl diffuse_0
v 0.99615079164505005 0.125 -0.17002752423286438
v 0.49605077505111694 0.125 -0.16613970696926117
v 0.99642568826675415 0.125 -0.21279983222484589
v 0.49632573127746582 0.125 -0.20891201496124268
v 0.99670064449310303 0.125 -0.25557214021682739
v 0.4966006875038147 0.125 -0.25168433785438538
vt 0 0
vt 0 1
vt 0.5 0
vt 0.5 1
vt 1 0
vt 1 1
vn 0 1 0
vn 0 1 0
vn 0 1 0
vn 0 1 0
vn 0 1 0
vn 0 1 0
f 56/56/56 54/54/54 53/53/53 55/55/55
f 58/58/58 56/56/56 55/55/55 57/57/57
usemtl diffuse_0
v 0.99670064449310303 0.1875 -0.25557214021682739
v 0.4966006875038147 0.1875 -0.25168433785438538
v 0.9969756007194519 0.1875 -0.29834443330764771
v 0.49687561392784119 0.1875 -0.29445663094520569
v 0.99725055694580078 0.1875 -0.34111675620079041
v 0.49715057015419006 0.1875 -0.337228924036026
vt 0 0
vt 0 1
vt 0.5 0
vt 0.5 1
vt 1 0
vt 1 1
vn 0 1 0
vn 0 1 0
vn 0 1 0
vn 0 1 0
vn 0 1 0
vn 0 1 0
f 62/62/62 60/60/60 59/59/59 61/61/61
f 64/64/64 62/62/62 61/61/61 63/63/63
usemtl diffuse_0
v 0.99725055694580078 0.25 -0.34111675620079041
v 0.49715057015419006 0.25 -0.337228924036026
v 0.99752551317214966 0.25 -0.38388904929161072
v 0.49742549657821655 0.25 -0.3800012469291687
v 0.99780046939849854 0.25 -0.42666134238243103
v 0.49770045280456543 0.25 -0.42277354001998901
vt 0 0
vt 0 1
vt 0.5 0
vt 0.5 1
vt 1 0
vt 1 1
vn 0 1 0
vn 0 1 0
vn 0 1 0
vn 0 1 0
vn 0 1 0
vn 0 1 0
f 68/68/68 66/66/66 65/65/65 67/67/67
f 70/70/70 68/68/68 67/67/67 69/69/69
usemtl diffuse_0
v 0.99780046939849854 0.3125 -0.42666134238243103
v 0.49770045280456543 0.3125 -0.42277354001998901
v 0.99807536602020264 0.3125 -0.46943366527557373
v 0.49797540903091431 0.3125 -0.46554586291313171
v 0.99835032224655151 0.3125 -0.51220595836639404
v 0.4982503354549408 0.3125 -0.50831818580627441
vt 0 0
vt 0 1
vt 0.5 0
vt 0.5 1
vt 1 0
vt 1 1
vn 0 1 0
vn 0 1 0
vn 0 1 0
vn 0 1 0
vn 0 1 0
vn 0 1 0
f 74/74/74 72/72/72 71/71/71 73/73/73
f 76/76/76 74/74/74 73/73/73 75/75/75
usemtl diffuse_0
v 0.99835032224655151 0.375 -0.51220595836639404
v 0.4982503354549408 0.375 -0.50831818580627441
v 0.99862527847290039 0.375 -0.55497825145721436
v 0.49852529168128967 0.375 -0.55109047889709473
v 0.99890023469924927 0.375 -0.59775060415267944
v 0.49880024790763855 0.375 -0.59386277198791504
vt 0 0
vt 0 1
vt 0.5 0
vt 0.5 1
vt 1 0
vt 1 1
vn 0 1 0
vn 0 1 0
vn 0 1 0
vn 0 1 0
vn 0 1 0
vn 0 1 0
f 80/80/80 78/78/78 77/77/77 79/79/79
f 82/82/82 80/80/80 79/79/79 81/81/81
usemtl diffuse_0
v 0.99890023469924927 0.4375 -0.59775060415267944
v 0.49880024790763855 0.4375 -0.59386277198791504
v 0.99917519092559814 0.4375 -0.64052289724349976
v 0.49907517433166504 0.4375 -0.63663506507873535
v 0.99945008754730225 0.4375 -0.68329519033432007
v 0.49935013055801392 0.4375 -0.67940735816955566
vt 0 0
vt 0 1
vt 0.5 0
vt 0.5 1
vt 1 0
vt 1 1
vn 0 1 0
vn 0 1 0
vn 0 1 0
vn 0 1 0
vn 0 1 0
vn 0 1 0
f 86/86/86 84/84/84 83/83/83 85/85/85
f 88/88/88 86/86/86 85/85/85 87/87/87
